<svg xmlns="http://www.w3.org/2000/svg" viewBox="0 0 64 64">
  <defs>
    <linearGradient id="bgGrad" x1="0%" y1="0%" x2="100%" y2="100%">
      <stop offset="0%" style="stop-color:#1e40af"/>
      <stop offset="100%" style="stop-color:#3b82f6"/>
    </linearGradient>
    <linearGradient id="carGrad" x1="0%" y1="0%" x2="100%" y2="0%">
      <stop offset="0%" style="stop-color:#ffffff"/>
      <stop offset="100%" style="stop-color:#e0e7ff"/>
    </linearGradient>
  </defs>
  <!-- Background Circle -->
  <circle cx="32" cy="32" r="30" fill="url(#bgGrad)"/>
  <!-- Car Body -->
  <path d="M14 38 L18 30 L26 26 L38 26 L46 30 L50 38 L50 42 L14 42 Z" 
        fill="url(#carGrad)" stroke="#1e3a8a" stroke-width="1"/>
  <!-- Windows -->
  <path d="M20 30 L25 27 L32 27 L32 34 L20 34 Z" fill="#60a5fa" opacity="0.8"/>
  <path d="M34 27 L41 27 L44 30 L44 34 L34 34 Z" fill="#60a5fa" opacity="0.8"/>
  <!-- Wheels -->
  <circle cx="22" cy="42" r="5" fill="#1e293b"/>
  <circle cx="22" cy="42" r="2.5" fill="#64748b"/>
  <circle cx="42" cy="42" r="5" fill="#1e293b"/>
  <circle cx="42" cy="42" r="2.5" fill="#64748b"/>
  <!-- Health Pulse / Heartbeat -->
  <path d="M24 20 L28 20 L30 14 L32 24 L34 18 L36 20 L40 20" 
        fill="none" stroke="#22c55e" stroke-width="2" stroke-linecap="round" stroke-linejoin="round"/>
  <!-- Pulse glow -->
  <circle cx="32" cy="19" r="3" fill="#22c55e" opacity="0.3"/>
</svg>
